<svg xmlns="http://www.w3.org/2000/svg" width="24" height="24" viewBox="0 0 24 24">
    <path fill="#66A636" fill-rule="evenodd" d="M8.916 16.072c-.617.087-1.268.133-1.943.133C3.122 16.205 0 14.694 0 12.83v-.733c0-1.865 3.122-3.377 6.973-3.377.675 0 1.326.047 1.943.133v7.22zm0 3.77c-.617.087-1.268.133-1.943.133C3.122 19.975 0 18.464 0 16.6v-.733c0-.237.05-.468.147-.691.659 1.533 3.464 2.685 6.826 2.685.675 0 1.326-.047 1.943-.134v2.116zm1.138-13.465C10.054 4.512 13.176 3 17.027 3S24 4.512 24 6.377v.732c0 1.865-3.122 3.377-6.973 3.377s-6.973-1.512-6.973-3.377v-.732zm.147 3.079c.659 1.533 3.465 2.685 6.826 2.685 3.362 0 6.167-1.152 6.826-2.685.096.223.147.454.147.69v.733c0 1.865-3.122 3.377-6.973 3.377s-6.973-1.512-6.973-3.377v-.732c0-.237.05-.468.147-.691zm0 3.77c.659 1.533 3.465 2.685 6.826 2.685 3.362 0 6.167-1.152 6.826-2.685.096.223.147.454.147.691v.732c0 1.865-3.122 3.378-6.973 3.378s-6.973-1.513-6.973-3.378v-.732c0-.237.05-.468.147-.691zm0 3.973c.659 1.533 3.465 2.685 6.826 2.685 3.362 0 6.167-1.152 6.826-2.685.096.223.147.455.147.692v.732C24 20.488 20.878 22 17.027 22s-6.973-1.512-6.973-3.377v-.732c0-.237.05-.469.147-.692z"/>
</svg>
