<svg xmlns="http://www.w3.org/2000/svg" width="24" height="24" viewBox="0 0 24 24">
    <path fill="#66A636" fill-rule="evenodd" d="M24 7.108v7.118s-1.555.3-1.875.34c-.32.04-1.323.357-2.05-.328-1.122-1.053-5.106-4.936-5.106-4.936s-.687-.66-1.79-.09a154.73 154.73 0 0 1-3.141 1.588c-1.185.618-2.168-.362-2.168-1.11 0-.579.37-.972.897-1.261 1.43-.85 4.443-2.507 5.698-3.16.763-.398 1.312-.432 2.36.433a304.743 304.743 0 0 1 2.438 2.032s.374.306.971.182C21.7 7.613 24 7.108 24 7.108zM8.14 19.17c.193-.486.129-1.029-.242-1.402-.332-.333-.817-.42-1.28-.317.13-.45.058-.928-.276-1.266-.334-.333-.818-.422-1.28-.317.128-.45.056-.928-.278-1.265-.524-.526-1.43-.504-2.025.052-.591.556-.97 1.565-.443 2.158.528.59 1.134.231 1.596.128-.129.45-.514.867-.04 1.455.474.588 1.134.231 1.596.129-.129.447-.497.907-.04 1.452.46.547 1.213.255 1.71.104-.191.484-.603 1.005-.074 1.59.527.589 1.746.316 2.341-.24.594-.557.651-1.439.129-1.967-.36-.362-.898-.446-1.394-.294zm10.864-3.703c-4.304-4.217-2.28-2.233-4.596-4.507 0 0-.696-.68-1.614-.285-.644.277-1.473.654-2.097.941-.685.353-1.179.462-1.41.46-1.326-.008-2.401-1.052-2.401-2.35 0-.84.456-1.574 1.136-1.99.957-.648 3.158-1.795 3.158-1.795s-.67-.833-2.14-.833c-1.469 0-4.537 1.97-4.537 1.97s-.87.546-2.111.054L0 6.315v8.145s.683.194 1.297.44a2.67 2.67 0 0 1 .672-1.04c1.018-.95 2.705-.96 3.632-.026.279.284.473.623.573.997.373.113.71.313.982.587.28.282.474.623.575.996.372.113.71.314.983.588.306.31.51.685.606 1.09.39.112.742.319 1.026.603.557.56.754 1.32.634 2.053a17.86 17.86 0 0 0 .558.587c.41.403 1.08.403 1.492 0a1.023 1.023 0 0 0 0-1.462c-.014-.014-1.48-1.516-1.362-1.633.117-.115 1.984 1.788 2.02 1.823.409.402 1.079.402 1.49 0a1.02 1.02 0 0 0 0-1.46 6.89 6.89 0 0 1-.135-.13s-1.852-1.616-1.71-1.754c.142-.139 2.442 1.964 2.446 1.964.413.365 1.05.362 1.447-.028a1.01 1.01 0 0 0 .053-1.382c-.008-.022-1.753-1.81-1.617-1.944.138-.136 1.865 1.606 1.87 1.61.408.402 1.078.402 1.49 0 .41-.401.41-1.057 0-1.463l-.018-.01z"/>
</svg>
