<svg xmlns="http://www.w3.org/2000/svg" width="24" height="24" viewBox="0 0 24 24">
    <path fill="#66A636" fill-rule="evenodd" d="M22.71 4.642L18.516 2.72c-.892-.3-1.801-.537-2.719-.71a.492.492 0 0 0-.577.375A3.298 3.298 0 0 1 12 4.944a3.298 3.298 0 0 1-3.22-2.56.493.493 0 0 0-.577-.376c-.918.174-1.827.41-2.72.71L1.29 4.643a.491.491 0 0 0-.236.672L2.875 8.88a.495.495 0 0 0 .585.25l2.022-.595v11.97c0 .272.224.494.498.494h12.04a.496.496 0 0 0 .496-.494V8.536l2.024.595a.498.498 0 0 0 .585-.25l1.821-3.567a.492.492 0 0 0-.236-.672z" opacity=".85"/>
</svg>
