<svg xmlns="http://www.w3.org/2000/svg" width="24" height="24" viewBox="0 0 24 24">
    <path fill="#66A636" fill-rule="evenodd" d="M22.364 19.527l-7.565-7.09a2.088 2.088 0 0 0-.224-.18l1.34-1.323a2.6 2.6 0 0 0 .193-.203c1.778.63 3.866.276 5.295-1.064 1.043-.978 1.57-2.33 1.442-3.71a.407.407 0 0 0-.281-.344.452.452 0 0 0-.452.094l-2.425 2.272-2.454-.58-.697-2.373 2.424-2.272a.385.385 0 0 0 .1-.424.428.428 0 0 0-.367-.264c-1.472-.119-2.915.374-3.958 1.352-1.429 1.338-1.807 3.293-1.137 4.96-.072.058-.145.119-.216.185l-1.972 1.775-3.622-3.394a1.313 1.313 0 0 0-.143-.115c.043-.07.084-.142.123-.216.764.138 2.163-1.258 3.35-2.37L7.658 1c-1.546 1.45-2.676 2.423-2.53 3.14-.353.162-.668.36-.892.57l-.488.457a1.888 1.888 0 0 0-.575 1.05c-.047.051-.095.104-.143.161l-.182.214-.025.032-.164.216c-.103.129-.193.269-.28.403a9.899 9.899 0 0 1-.114.176l-.073.13c-.088.155-.18.316-.259.493l-.012.028c-.093.206-.189.42-.256.646l-.032.097c-.027.08-.054.161-.078.257l-.068.312c-.05.195-.067.388-.081.558l-.01.112a2.604 2.604 0 0 0-.01.49c.001.05.004.098.005.164l.003.08c.002.065.004.14.017.218l.042.253c.01.05.017.097.024.142.016.103.033.21.066.31l.177.576c.054.175.231.29.425.278a.424.424 0 0 0 .264-.113.377.377 0 0 0 .117-.218l.092-.585c.006-.047.028-.115.05-.187l.043-.144.065-.218c.008-.03.023-.059.037-.088.013-.028.026-.056.037-.084.022-.046.043-.092.063-.14.04-.093.078-.181.136-.268l.073-.12c.06-.1.118-.197.186-.276l.013-.015.154-.2c.031-.037.066-.072.1-.108.025-.025.05-.05.08-.083.092-.103.198-.192.301-.28l.056-.046c.076-.067.164-.13.257-.195l.112-.08.137-.085a2.44 2.44 0 0 1 .24-.14l.183-.097.184-.085c.065-.03.128-.055.186-.077l.101-.04c.033-.01.064-.021.093-.032.04-.013.074-.026.12-.037l.05-.01c.055.081.118.16.195.231L9.452 12.1l-7.647 6.884-.01.008c-.95.892-1.106 2.198-.154 3.09.952.892 2.257.663 3.208-.228a.162.162 0 0 0 .012-.011l6.746-6.658c.04.044.079.088.123.13l7.564 7.089c.848.795 2.223.795 3.07 0a1.945 1.945 0 0 0 0-2.877zM3.862 21.12a.94.94 0 0 1-1.27 0 .804.804 0 0 1 0-1.19.941.941 0 0 1 1.27 0c.35.329.35.861 0 1.19z" opacity=".85"/>
</svg>
